<svg version="1.1" viewBox="0 0 1066.7 1066.7" xmlns="http://www.w3.org/2000/svg">
 <path d="m292.58 313.99c76.757-132.95 246.77-178.5 379.71-101.74 132.95 76.76 178.51 246.76 101.75 379.72-36.995 64.075-95.668 107.78-161.4 127.34l-349.65-201.87c-15.917-66.704-7.408-139.37 29.587-203.44" fill="#211c1d"/>
 <path d="m346.21 678.25c-39.836-33.272-68.551-76.227-84.624-123.34l316.65 182.82c-47.244 9.3227-97.035 6.4733-144.35-9.8907l-87.996 152.42c-6.3187 10.949-20.324 14.697-31.271 8.3773l-47.587-27.473c-10.947-6.3227-14.697-20.32-8.3787-31.269l87.553-151.65" fill="#211c1d"/>
</svg>
